# xmcd
#
# Track frame offsets:
#       150
#       14734
#       29897
#       48872
#       56085
#       76529
#       99184
#
# Disc length: 1548 seconds
#
# Revision: 0
# Processed by: cddbd v1.4PL0 Copyright (c) Steve Scherf et al.
# Submitted via: CD-DA_X-Tractor v0.23
#
DISCID=4f060a07
DTITLE=Adjabel - Tanbou, Base, Music
DYEAR=2003
DGENRE=world
TTITLE0=woman and mother
TTITLE1=lawé
TTITLE2=mineur - majeur
TTITLE3=péi a longo
TTITLE4=label
TTITLE5=viv lespwi yo
TTITLE6=un ange
EXTD=
EXTT0=
EXTT1=
EXTT2=
EXTT3=
EXTT4=
EXTT5=
EXTT6=
PLAYORDER=
